2012.2009.BluRay.1080p.x264.mkv
*******************************

TiTLE......  2012
YEAR.......  2009
GENRE......  Action | Adventure | Drama | Sci-Fi | Thriller 
iMDB RATE..  User Rating: 6.0/10 (60,782 votes)
iMDB URL...  http://www.imdb.com/title/tt1190080/
Awards 2010: Awards:2 wins & 13 nominations
***********************************************************

Video
ID                               : 1
Format                           : AVC
Format/Info                      : Advanced Video Codec
Format profile                   : High@L4.0
Format settings, CABAC           : Yes
Format settings, ReFrames        : 5 frames
Muxing mode                      : Container profile=Unknown@4.0
Codec ID                         : V_MPEG4/ISO/AVC
Duration                         : 2h 37mn
Bit rate                         : 4 410 Kbps
Nominal bit rate                 : 4 630 Kbps
Width                            : 1 920 pixels
Height                           : 816 pixels
Display aspect ratio             : 2.35:1
Frame rate                       : 23.976 fps
Resolution                       : 24 bits
Colorimetry                      : 4:2:0
Scan type                        : Progressive
Bits/(Pixel*Frame)               : 0.117
Stream size                      : 4.86 GiB (73%)
Writing library                  : x264 core 70 r1206M 9a54c48

Audio
ID                               : 2
Format                           : DTS
Format/Info                      : Digital Theater Systems
Codec ID                         : A_DTS
Duration                         : 2h 37mn
Bit rate mode                    : Constant
Bit rate                         : 1 510 Kbps
Channel(s)                       : 6 channels
Channel positions                : Front: L C R, Surround: L R, LFE
Sampling rate                    : 48.0 KHz
Resolution                       : 24 bits
Video delay                      : -42ms
Stream size                      : 1.66 GiB (25%)
Title                            : DTS 6 channels
Language                         : English

Subtitles
*********
Text #1 (Default)
ID                               : 3
Format                           : UTF-8
Codec ID                         : S_TEXT/UTF8
Codec ID/Info                    : UTF-8 Plain Text
Language                         : English (only Non-Eng Parts)

Text #2
ID                               : 4
Language                         : English

Text #3
ID                               : 5
Language                         : Dutch

Text #4
ID                               : 6
Language                         : French

Text #5
ID                               : 7
Language                         : Portuguese

Text #6
ID                               : 8
Language                         : rom

Text #7
ID                               : 9
Language                         : Spanish

Text #8
ID                               : 10
Language                         : bra

Text #9
ID                               : 11
Language                         : Greek

Text #10
ID                               : 12
Language                         : Swedish

Text #11
ID                               : 13
Language                         : Finnish

